# xmcd
#
# Track frame offsets:
# 150
# 25846
# 46629
# 71990
# 100740
# 126565
# 145828
# 179415
# 196878
# 221224
# 241597
#
# Disc length: 3421 seconds
#
#
# Revision: 0
# Processed by: cddbd v1.5.1PL2 Copyright (c) Steve Scherf et al.
# Submitted via: FreeRIP 2.945 
#
DISCID=9f0d5b0b
DTITLE=Fotamana - One Soup Can
DYEAR=2004
DGENRE=Alternative
TTITLE0=Scottish Song
TTITLE1=Dozo Abubakar
TTITLE2=Wanderer
TTITLE3=Wool
TTITLE4=New Deals
TTITLE5=Awake All Night
TTITLE6=Blind Man II
TTITLE7=She's Not Underground
TTITLE8=Take Me Along
TTITLE9=Awake
TTITLE10=Americans
EXTD=
EXTT0=
EXTT1=
EXTT2=
EXTT3=
EXTT4=
EXTT5=
EXTT6=
EXTT7=
EXTT8=
EXTT9=
EXTT10=
PLAYORDER=
